<svg width="77" height="77" viewBox="0 0 77 77" fill="none" xmlns="http://www.w3.org/2000/svg">
<path d="M75.6609 28.5396C72.9906 18.5709 66.6325 10.2586 57.7581 5.13364C51.9434 1.7753 45.3203 2.42101e-10 38.6057 2.42101e-10C24.8138 2.42101e-10 11.9917 7.37078 5.14353 19.2357C0.020018 28.1128 -1.33124 38.4916 1.3391 48.4601C4.00944 58.4288 10.3671 66.7411 19.2416 71.8667C20.4766 72.5796 21.7479 73.2209 23.0492 73.7894H22.4517C21.5656 73.7894 20.8469 74.5082 20.8469 75.3947C20.8469 76.2811 21.5658 77 22.4517 77H54.549C55.4351 77 56.1539 76.2809 56.1539 75.3947C56.1539 74.508 55.435 73.7894 54.549 73.7894H53.8327C61.3022 70.5467 67.6866 64.9885 71.8565 57.7641C76.98 48.8866 78.3312 38.5078 75.6609 28.5396ZM69.0766 56.1585C62.8002 67.0336 51.0433 73.7888 38.3942 73.7888C32.2422 73.7888 26.1739 72.1627 20.8463 69.0858C3.98628 59.3485 -1.81054 37.7057 7.92321 20.841C14.2001 9.96627 25.9567 3.21062 38.6058 3.21062C44.7578 3.21062 50.8258 4.83698 56.1534 7.91416C64.2853 12.6105 70.1124 20.2305 72.5606 29.3703C75.0088 38.5102 73.7718 48.024 69.0766 56.1585Z" fill="#E30613"/>
<path d="M23.5827 21.6231C13.6456 18.9595 5.81824 11.13 3.15542 1.19037C2.92593 0.333785 2.04704 -0.174239 1.18981 0.0550265C0.333789 0.284593 -0.174381 1.16495 0.0551154 2.02123C3.01375 13.0655 11.7109 21.7648 22.7521 24.7245C22.8912 24.7618 23.0311 24.7797 23.1684 24.7797C23.877 24.7797 24.5257 24.3066 24.7177 23.5892C24.9472 22.7327 24.439 21.8525 23.5827 21.6231Z" transform="translate(7.4408 44.7885)" fill="#E30613"/>
<path d="M2.02072 0.0550291C1.1647 -0.174236 0.284609 0.333788 0.0551127 1.19007C-0.174384 2.04636 0.333787 2.92671 1.19011 3.15628C11.1272 5.8199 18.9544 13.6494 21.6171 23.589C21.8092 24.3061 22.4578 24.7793 23.1664 24.7793C23.3036 24.7793 23.4436 24.7615 23.5827 24.7241C24.4387 24.4945 24.9469 23.6141 24.7174 22.7578C21.7588 11.7139 13.0621 3.01442 2.02072 0.0550291Z" transform="translate(44.7863 7.43188)" fill="#E30613"/>
<path d="M2.92673 0.0701965C2.52429 0.0563564 2.12034 0.034393 1.72646 0.00475703C0.84036 -0.0629394 0.0717118 0.600182 0.00463751 1.48415C-0.062136 2.36841 0.599884 3.1394 1.48388 3.20649C1.92227 3.23974 2.37149 3.26411 2.81845 3.27916C2.83695 3.27976 2.85515 3.28006 2.87365 3.28006C3.73493 3.28006 4.44748 2.59617 4.47651 1.72861C4.50659 0.842234 3.81254 0.0998325 2.92673 0.0701965Z" transform="translate(34.6138 67.3103)" fill="#E30613"/>
<path d="M1.55013 3.21006C1.95002 3.2236 2.35517 3.24557 2.75341 3.2752C2.79386 3.27806 2.83432 3.27957 2.87402 3.27957C3.70628 3.27957 4.41026 2.63675 4.47297 1.79295C4.53839 0.908686 3.87517 0.138602 2.99132 0.0731617C2.54993 0.0402161 2.10206 0.0161469 1.65946 0.00110322C0.769601 -0.0315415 0.0311798 0.664528 0.000951209 1.5506C-0.0292774 2.43697 0.664475 3.17983 1.55013 3.21006Z" transform="translate(37.9083 6.40942)" fill="#E30613"/>
<path d="M36.2143 12.284H27.6492C28.3372 9.02754 28.7946 5.56946 26.9409 3.01565C25.6971 1.30203 23.5801 0.292148 20.6484 0.014743C20.5455 0.00496465 20.4411 3.12185e-07 20.338 3.12185e-07C18.6542 3.12185e-07 17.211 1.31346 17.0533 2.98902C16.506 8.76232 14.9446 11.9969 13.3436 13.4395C13.1493 12.7724 12.5339 12.2842 11.8039 12.2842H1.60482C0.718719 12.2842 1.83583e-08 13.003 1.83583e-08 13.8895V34.7647C1.83583e-08 35.6513 0.718869 36.37 1.60482 36.37H11.8039C12.5534 36.37 13.1812 35.8552 13.3577 35.16C14.5617 35.9423 16.0691 36.37 17.8084 36.37H34.7668C36.4848 36.37 37.8809 35.0449 38.0863 33.2191L39.9405 16.7312C40.0868 15.4357 39.7653 14.2722 39.035 13.4547C38.5575 12.9205 37.6812 12.284 36.2143 12.284ZM10.1991 15.9365V28.6768V33.1592H3.20964V21.9157H6.70427C7.59068 21.9157 8.30909 21.1966 8.30909 20.3104C8.30909 19.4238 7.59053 18.7051 6.70427 18.7051H3.20964V15.4947H10.1991V15.9365ZM36.751 16.3717L34.8965 32.8601C34.8755 33.0458 34.7931 33.1464 34.774 33.1589C34.774 33.1589 34.7717 33.1592 34.7668 33.1592H17.8084C13.9802 33.1592 13.4088 30.3509 13.4088 28.6768V17.1449C14.455 16.7147 15.7503 15.8541 16.9527 14.1418C18.6916 11.665 19.8006 8.0148 20.2486 3.29125C20.253 3.24582 20.2934 3.20941 20.3461 3.21092C22.32 3.39806 23.6649 3.96686 24.3435 4.90182C25.6242 6.66644 24.8667 10.049 24.1983 13.0335L24.0849 13.5405C23.9794 14.0162 24.0952 14.5138 24.3997 14.8935C24.7043 15.2735 25.1648 15.4945 25.6517 15.4945H36.2143C36.423 15.4945 36.5863 15.5324 36.6412 15.5935C36.7254 15.6886 36.796 15.9718 36.751 16.3717Z" transform="translate(18.5125 17.104)" fill="#E30613"/>
</svg>
