<svg width="91" height="91" viewBox="0 0 91 91" fill="none" xmlns="http://www.w3.org/2000/svg">
<path d="M12.733 5.6987C10.3272 5.6987 8.37003 3.74166 8.37003 1.33567C8.37003 0.597899 7.77213 5.20706e-07 7.03436 5.20706e-07C6.29658 5.20706e-07 5.69869 0.597899 5.69869 1.33567C5.69869 3.74149 3.74166 5.6987 1.33567 5.6987C0.597899 5.6987 -1.04141e-06 6.2966 -1.04141e-06 7.03437C-1.04141e-06 7.77215 0.597899 8.37005 1.33567 8.37005C3.74148 8.37005 5.69869 10.3273 5.69869 12.7331C5.69869 13.4708 6.29658 14.0687 7.03436 14.0687C7.77213 14.0687 8.37003 13.4708 8.37003 12.7331C8.37003 10.3273 10.3271 8.37005 12.733 8.37005C13.4708 8.37005 14.0687 7.77215 14.0687 7.03437C14.0687 6.2966 13.4708 5.6987 12.733 5.6987ZM7.03454 8.61336C6.59518 8.00747 6.06126 7.47373 5.45555 7.03437C6.06144 6.59501 6.59535 6.0611 7.03454 5.45538C7.47389 6.06128 8.00781 6.59501 8.61353 7.03437C8.00763 7.47373 7.47389 8.00764 7.03454 8.61336Z" transform="translate(76.9313 18.5205)" fill="#E30613"/>
<path d="M12.733 5.6987C10.3274 5.6987 8.37003 3.74166 8.37003 1.33567C8.37003 0.597899 7.77195 5.20706e-07 7.03436 5.20706e-07C6.29676 5.20706e-07 5.69869 0.597899 5.69869 1.33567C5.69869 3.74149 3.7413 5.6987 1.33567 5.6987C0.598075 5.6987 0 6.2966 0 7.03437C0 7.77215 0.598075 8.37005 1.33567 8.37005C3.7413 8.37005 5.69869 10.3273 5.69869 12.7331C5.69869 13.4708 6.29676 14.0687 7.03436 14.0687C7.77195 14.0687 8.37003 13.4708 8.37003 12.7331C8.37003 10.3273 10.3274 8.37005 12.733 8.37005C13.4706 8.37005 14.0687 7.77215 14.0687 7.03437C14.0687 6.2966 13.4706 5.6987 12.733 5.6987ZM7.03436 8.61336C6.595 8.00747 6.06126 7.47373 5.45537 7.03437C6.06144 6.59501 6.59518 6.0611 7.03436 5.45538C7.47372 6.06128 8.00745 6.59501 8.61335 7.03437C8.00763 7.47373 7.47372 8.00764 7.03436 8.61336Z" transform="translate(0.00012207 18.5205)" fill="#E30613"/>
<path d="M15.5823 7.12324C12.3909 7.12324 9.79457 4.52707 9.79457 1.3355C9.79475 0.597898 9.19685 0 8.45907 0C7.72148 0 7.1234 0.597898 7.1234 1.33567C7.1234 4.52707 4.52689 7.12341 1.33567 7.12341C0.598076 7.12341 1.04141e-06 7.72131 1.04141e-06 8.45909C1.04141e-06 9.19686 0.598076 9.79476 1.33567 9.79476C4.52689 9.79476 7.1234 12.3911 7.1234 15.5825C7.1234 16.3203 7.72148 16.9182 8.45907 16.9182C9.19685 16.9182 9.79475 16.3203 9.79475 15.5825C9.79475 12.3911 12.3911 9.79476 15.5825 9.79476C16.3203 9.79476 16.9181 9.19686 16.9181 8.45909C16.9181 7.72131 16.3201 7.12324 15.5823 7.12324ZM8.45907 11.0243C7.79879 9.99631 6.92168 9.11919 5.89348 8.45891C6.92168 7.79863 7.79879 6.92151 8.45907 5.89349C9.11936 6.92151 9.99647 7.79863 11.0245 8.45891C9.99647 9.11919 9.11936 9.99631 8.45907 11.0243Z" transform="translate(37.0411)" fill="#E30613"/>
<path d="M56.0457 16.5624L50.8501 1.84168C50.4614 0.740087 49.4153 6.29187e-07 48.2472 6.29187e-07H7.87281C6.70457 6.29187e-07 5.6586 0.740085 5.2699 1.84151L0.0743765 16.5624C-0.227416 17.4174 0.428422 18.3425 1.3338 18.3425H54.7862C55.2196 18.3425 55.626 18.1321 55.8763 17.7784C56.1267 17.4245 56.19 16.9711 56.0457 16.5624ZM3.22151 15.6712L7.78874 2.73053C7.80083 2.69623 7.8362 2.67117 7.87264 2.67117H48.2472C48.2837 2.67117 48.319 2.69623 48.3313 2.73071L52.8985 15.6712H3.22151Z" transform="translate(17.262 28.4933)" fill="#E30613"/>
<path d="M8.4589 -8.24451e-07C3.71553 -8.24451e-07 2.08282e-06 2.46411 2.08282e-06 5.60965C2.08282e-06 8.7552 3.71553 11.2193 8.4589 11.2193C13.2023 11.2193 16.9178 8.7552 16.9178 5.60965C16.9178 2.46411 13.2023 -8.24451e-07 8.4589 -8.24451e-07ZM8.4589 8.54796C5.14629 8.54796 2.67117 6.99669 2.67117 5.60965C2.67117 4.22261 5.14611 2.67135 8.4589 2.67135C11.7715 2.67135 14.2466 4.22261 14.2466 5.60965C14.2466 6.99669 11.7715 8.54796 8.4589 8.54796Z" transform="translate(62.5069 62.6849)" fill="#E30613"/>
<path d="M8.4589 -8.24451e-07C3.71553 -8.24451e-07 1.95264e-07 2.46411 1.95264e-07 5.60965C1.95264e-07 8.7552 3.71553 11.2193 8.4589 11.2193C13.2023 11.2193 16.9178 8.7552 16.9178 5.60965C16.9178 2.46411 13.2023 -8.24451e-07 8.4589 -8.24451e-07ZM8.4589 8.54796C5.14647 8.54796 2.67116 6.99669 2.67116 5.60965C2.67116 4.22261 5.14629 2.67135 8.4589 2.67135C11.7715 2.67135 14.2466 4.22261 14.2466 5.60965C14.2466 6.99669 11.7715 8.54796 8.4589 8.54796Z" transform="translate(11.2192 62.6849)" fill="#E30613"/>
<path d="M86.8151 18.5206H79.6919C79.079 18.5206 78.5448 18.9378 78.3962 19.5323L77.4579 23.2852L70.8958 4.69308C69.9051 1.88612 67.2395 1.14989e-06 64.2626 1.14989e-06H23.8882C20.9113 1.14989e-06 18.2456 1.88612 17.255 4.69325L10.693 23.2853L9.75475 19.5323C9.60599 18.9376 9.07172 18.5206 8.45907 18.5206H1.33567C0.598075 18.5206 2.034e-09 19.1185 2.034e-09 19.8563V25.555C2.034e-09 26.2928 0.598075 26.8907 1.33567 26.8907H8.71288L4.15951 33.2653C3.30248 34.4652 2.84943 35.8792 2.84943 37.3539V54.0481C2.84943 56.3614 3.97218 58.417 5.701 59.6997C5.70046 59.7154 5.69869 59.7308 5.69869 59.7467V64.0206C5.69869 65.5428 6.93696 66.7809 8.4589 66.7809H17.0068C18.5289 66.7809 19.767 65.5426 19.767 64.0206V61.0823H68.3833V64.0206C68.3833 65.5428 69.6216 66.7809 71.1436 66.7809H79.6915C81.2136 66.7809 82.4517 65.5426 82.4517 64.0206V59.7467C82.4517 59.7308 82.4499 59.7154 82.4494 59.6997C84.1782 58.417 85.301 56.3614 85.301 54.0481V37.3539C85.301 35.8791 84.8477 34.465 83.9907 33.2653L79.4373 26.8907H86.8147C87.5525 26.8907 88.1504 26.2928 88.1504 25.555V19.8563C88.1506 19.1184 87.5528 18.5206 86.8151 18.5206ZM2.67134 24.2192V21.1918H7.41613L8.17292 24.2192H2.67134ZM17.0961 64.0206C17.0961 64.0697 17.0562 64.1097 17.007 64.1097H8.45907C8.41002 64.1097 8.37003 64.0697 8.37003 64.0206V61.0823H9.88379H17.0961V64.0206ZM79.7807 64.0206C79.7807 64.0697 79.7407 64.1097 79.6917 64.1097H71.1437C71.0947 64.1097 71.0547 64.0697 71.0547 64.0206V61.0823H78.267H79.7807V64.0206ZM78.2671 58.411H9.88361C7.94365 58.411 6.29605 57.1381 5.7305 55.3836H82.4201C81.8545 57.1381 80.2071 58.411 78.2671 58.411ZM55.5616 43.9864V47.0138H32.5891V43.9864H55.5616ZM32.799 41.3151C33.3646 39.5607 35.012 38.2877 36.9521 38.2877H51.1988C53.1387 38.2877 54.7863 39.5607 55.3519 41.3151H32.799ZM55.5616 49.6849V52.7123H32.5891V49.6849H55.5616ZM81.8176 34.8178C82.3492 35.562 82.6301 36.4389 82.6301 37.3537V52.7125H58.233V42.6507C58.233 38.772 55.0773 35.6165 51.1988 35.6165H36.9521C33.0735 35.6165 29.918 38.7722 29.918 42.6507V52.7125H5.5206V37.3537C5.5206 36.4389 5.80159 35.562 6.3332 34.8178L11.9956 26.8905H61.1711C61.9089 26.8905 62.5068 26.2926 62.5068 25.5548C62.5068 24.8171 61.9089 24.2192 61.1711 24.2192H13.196L19.7738 5.5821C20.3884 3.8412 22.0417 2.67117 23.8882 2.67117H64.2628C66.1091 2.67117 67.7623 3.84102 68.3771 5.5821L74.9547 24.2192H66.8698C66.132 24.2192 65.5341 24.8171 65.5341 25.5548C65.5341 26.2926 66.132 26.8905 66.8698 26.8905H76.1551L81.8176 34.8178ZM85.4794 24.2192H79.9776L80.7344 21.1918H85.4794V24.2192Z" transform="translate(1.24664 24.2189)" fill="#E30613"/>
<path d="M9.88361 -3.03745e-07H1.33567C0.598075 -3.03745e-07 -1.19328e-07 0.597901 -1.19328e-07 1.33568C-1.19328e-07 2.07345 0.598075 2.67135 1.33567 2.67135H9.88361C10.6212 2.67135 11.2193 2.07345 11.2193 1.33568C11.2193 0.597901 10.6212 -3.03745e-07 9.88361 -3.03745e-07Z" transform="translate(14.0686 58.411)" fill="#E30613"/>
<path d="M9.88361 -3.03745e-07H1.33567C0.597898 -3.03745e-07 -2.29978e-06 0.597901 -2.29978e-06 1.33568C-2.29978e-06 2.07345 0.597898 2.67135 1.33567 2.67135H9.88361C10.6214 2.67135 11.2193 2.07345 11.2193 1.33568C11.2193 0.597901 10.6214 -3.03745e-07 9.88361 -3.03745e-07Z" transform="translate(65.3563 58.411)" fill="#E30613"/>
</svg>
