<svg width="86" height="86" viewBox="0 0 86 86" fill="none" xmlns="http://www.w3.org/2000/svg">
<path d="M81.7262 73.5159H81.8386V65.1935C81.8386 65.0146 81.822 60.7574 80.3391 56.3243L75.8171 45.7741H72.1288H68.4405L63.8769 56.4324C62.4356 60.7574 62.419 65.0143 62.419 65.1932V67.9674H58.2579C55.9637 67.9674 54.0965 66.1003 54.0965 63.8061V58.0289C60.7184 54.1839 65.1932 47.0322 65.1932 38.8385V38.6416C67.5789 38.0214 69.3546 35.8688 69.3546 33.2903C69.3546 30.7977 68.4154 29.2233 67.8897 28.5353C67.9368 28.2787 67.9674 28.0165 67.9674 27.7418V24.9676C67.9674 11.201 56.7668 0 42.9999 0C29.2329 0 18.0323 11.2007 18.0323 24.9676V27.7418C18.0323 28.0165 18.0629 28.2787 18.11 28.5353C17.5843 29.2233 16.6452 30.7977 16.6452 33.2903C16.6452 35.8688 18.4206 38.0217 20.8065 38.6416V38.8385C20.8065 47.0322 25.2813 54.1839 31.9032 58.0289V63.8061C31.9032 66.1003 30.036 67.9674 27.7418 67.9674H20.8062V66.0129C23.5333 64.3595 24.9676 61.6963 24.9676 58.2576C24.9676 54.8815 22.69 50.9503 18.3373 49.9684L16.6449 49.5868V56.8705H13.8706V49.5842L12.1756 49.9684C7.82433 50.9588 5.54819 54.8871 5.54819 58.2576C5.54819 61.6963 6.9825 64.3581 9.70955 66.0129V69.5017C3.98921 72.1372 0 77.9115 0 84.6129V86H2.77424V84.6129C2.77424 77.4332 8.25893 71.5104 15.258 70.8127V86H18.0323V70.742H22.1933V86H24.9676V70.742H27.7418C28.3078 70.742 28.8487 70.6546 29.376 70.527C30.5813 76.9549 36.2268 81.8386 42.9999 81.8386C49.7729 81.8386 55.4184 76.9546 56.6237 70.527C57.151 70.6546 57.6919 70.742 58.2579 70.742H61.0321V86H63.8064V70.742H67.9677V86H70.742V70.8125C77.7414 71.5116 83.2258 77.4332 83.2258 84.6126V85.9997H86V84.6126C85.9997 80.3472 84.374 76.4649 81.7262 73.5159ZM18.8019 63.9506L18.032 64.3333V67.9674H16.6449C15.2065 67.9674 13.8164 68.1699 12.4835 68.5154V64.3333L11.7139 63.9506C9.43224 62.8174 8.32243 60.9558 8.32243 58.2579C8.32243 56.4755 9.2697 54.4615 11.0967 53.3546V59.645H19.4191V53.3517C21.2458 54.4557 22.1933 56.4726 22.1933 58.2579C22.1933 60.9558 21.0835 62.8171 18.8019 63.9506ZM65.1935 32.1004C65.5791 31.8478 65.9342 31.5816 66.2491 31.2973C66.4309 31.8009 66.5806 32.461 66.5806 33.2906C66.5803 34.3127 66.0187 35.1977 65.1935 35.6792V32.1004ZM41.6127 2.84531V12.4841H44.387V2.84531C55.7347 3.55286 64.7813 12.8045 65.1559 24.2385C60.2191 21.6073 49.8577 20.8068 42.9999 20.8068C36.142 20.8068 25.7806 21.6073 20.8438 24.237C21.2184 12.8042 30.265 3.55082 41.6127 2.84531ZM20.8065 35.6777C19.981 35.1977 19.4194 34.3127 19.4194 33.2906C19.4194 32.4598 19.5691 31.7995 19.7509 31.2958C20.0658 31.5816 20.4208 31.8478 20.8065 32.0989V35.6777ZM20.8077 27.7462C21.0794 26.3314 29.1482 23.5808 42.9999 23.5808C56.8597 23.5808 64.931 26.334 65.1932 27.7421C65.1935 30.4689 56.8917 33.2903 42.9999 33.2903C29.115 33.2903 20.8147 30.4718 20.8077 27.7462ZM23.5805 38.8385V33.4773C29.6961 35.8076 39.1741 36.0643 42.9999 36.0643C46.8256 36.0643 56.3033 35.8076 62.4192 33.4773V38.8385C62.4192 49.5469 53.7082 58.2579 42.9999 58.2579C32.2915 58.2579 23.5805 49.5469 23.5805 38.8385ZM42.9999 79.0644C37.3168 79.0644 32.623 74.7673 31.9836 69.252C33.6107 67.9829 34.6774 66.0257 34.6774 63.8064V59.3983C37.2504 60.444 40.0567 61.0324 42.9999 61.0324C45.943 61.0324 48.7493 60.4443 51.3223 59.3983V63.8064C51.3223 66.0257 52.389 67.9829 54.0161 69.252C53.3767 74.767 48.6829 79.0644 42.9999 79.0644ZM69.0496 67.9677H65.1935V65.1935C65.1935 65.1547 65.2086 61.2124 66.4682 57.4175L70.2689 48.5483H70.742V61.2873C69.1314 61.8614 67.9677 63.3875 67.9677 65.1935C67.9677 66.2631 68.3851 67.2296 69.0496 67.9677ZM72.1288 66.5806C71.3644 66.5806 70.7417 65.9593 70.7417 65.1935C70.7417 64.4277 71.3644 63.8064 72.1288 63.8064C72.8931 63.8064 73.5159 64.4277 73.5159 65.1935C73.5159 65.9593 72.8931 66.5806 72.1288 66.5806ZM79.0644 71.1203C77.6301 70.0857 76.035 69.2602 74.3108 68.7207C75.4941 67.987 76.2902 66.6858 76.2902 65.1932C76.2902 63.3872 75.1264 61.8614 73.5159 61.287V48.548H73.989L77.7481 57.3092C79.0437 61.1929 79.0644 65.1544 79.0644 65.1946V71.1203Z" fill="#E30613"/>
<path d="M2.77424 2.77424H15.258V-2.48905e-07H-1.56454e-06V13.8709H2.77424V2.77424Z" transform="translate(41.6127 37.4513)" fill="#E30613"/>
<path d="M2.77424 0H0V2.77424H2.77424V0Z" transform="translate(24.9676 18.032)" fill="#E30613"/>
<path d="M2.77424 0H0V2.77424H2.77424V0Z" transform="translate(30.5161 16.6455)" fill="#E30613"/>
</svg>
