<svg width="17" height="17" viewBox="0 0 17 17" fill="none" xmlns="http://www.w3.org/2000/svg">
<path d="M16.6217 13.449C16.6198 13.4471 16.618 13.4452 16.6161 13.4434L13.9972 10.8182C13.9947 10.8158 13.9923 10.8133 13.9898 10.8109C13.4666 10.2927 12.6036 10.3097 12.0637 10.8507C12.0635 10.8509 12.0634 10.8511 12.0632 10.8512L10.9519 11.9648C10.8269 12.0901 10.634 12.1176 10.4798 12.0308C9.64452 11.567 8.50132 10.9312 7.29835 9.72462C6.09181 8.5155 5.45689 7.36795 4.99267 6.53026C4.90919 6.37903 4.93505 6.18997 5.05715 6.06778L5.73732 5.38708C5.73785 5.38655 5.73837 5.38602 5.7389 5.3855L6.1737 4.94918C6.17426 4.94861 6.17483 4.94804 6.17539 4.94747C6.71623 4.40437 6.73117 3.53798 6.21064 3.01464C6.21005 3.01405 6.20946 3.01346 6.20888 3.01288L3.58473 0.382197C3.58449 0.381955 3.58425 0.381711 3.58401 0.381469C3.06259 -0.140623 2.19725 -0.124991 1.65534 0.417233C1.65466 0.417909 1.65398 0.418592 1.65331 0.41927L0.925033 1.15339C0.919156 1.15931 0.919187 1.16888 0.925102 1.17476C0.93053 1.18016 0.931068 1.18876 0.926372 1.19481C0.681915 1.50965 0.477473 1.87186 0.324899 2.26212C0.182678 2.63777 0.0941313 2.99623 0.0536431 3.35543C-0.293022 6.23587 1.02028 8.86838 4.58442 12.4406C9.51113 17.3782 13.4814 17.0052 13.6527 16.987C14.0257 16.9423 14.3832 16.8529 14.7466 16.7115C15.1336 16.56 15.4956 16.3547 15.8101 16.1094C15.8148 16.1057 15.8214 16.1059 15.8258 16.1099C15.8306 16.1141 15.8379 16.114 15.8425 16.1095L16.5793 15.3863C16.5824 15.3833 16.5855 15.3802 16.5885 15.3772C17.1239 14.8346 17.1388 13.9722 16.6217 13.449Z" fill="white"/>
</svg>
