<svg width="302" height="94" viewBox="0 0 302 94" fill="none" xmlns="http://www.w3.org/2000/svg">
<path d="M260.626 42.3496C261.653 40.0991 263.1 37.7736 265.041 35.1855C265.459 34.6979 265.916 34.2478 266.106 33.7602C267.629 32.1098 268.999 31.0971 269.912 31.0221C270.864 30.9471 271.359 31.3597 271.892 31.7347C272.158 32.1473 272.234 33.01 272.31 33.8727C272.577 36.6859 272.272 39.1239 271.016 41.1869C269.95 42.7997 268.618 44 267.02 44.6001C266.335 44.8627 265.612 44.9377 264.66 45.0127C263.975 45.0878 262.985 44.9377 262.224 44.3376C261.235 44.0375 260.702 43.3999 260.626 42.3496ZM250.958 43.1373C248.941 44.8252 247.152 45.8754 245.972 45.9504C245.021 46.0255 244.526 45.6504 244.221 44.7877C244.183 44.3376 244.145 43.925 244.107 43.4749C243.879 40.8493 245.363 38.3362 247.951 35.4856C248.636 34.998 249.512 34.2478 250.197 33.7602C251.757 32.5224 253.584 31.6972 255.259 31.5847C256.211 31.5097 256.743 32.1098 256.819 33.1976C256.858 33.6477 256.896 34.2853 256.743 34.9605C256.781 35.5981 256.629 36.2733 256.629 36.4983C253.813 39.7991 252.062 41.712 251.872 41.937C251.605 42.4247 251.148 42.6872 250.958 43.1373ZM218.378 45.9504C217.921 46.4006 217.274 46.8882 216.818 47.1882C216.133 47.6758 215.447 47.9759 214.762 48.0134C213.582 48.1259 212.859 47.9384 212.821 47.5258C212.745 46.6631 213.354 45.2753 214.915 43.85C215.6 43.3624 216.018 42.8748 216.475 42.6122C217.389 42.0871 218.264 41.5995 218.987 41.5244C219.939 41.4494 220.433 41.8245 220.509 42.6872C220.548 43.5499 219.939 44.7127 218.378 45.9504ZM188.881 51.5017C188.653 51.5017 188.424 51.5392 187.929 51.5767C187.244 51.6517 186.75 51.4642 186.445 51.0516C185.95 50.8641 185.684 50.4515 185.646 50.0014C185.57 49.1387 186.217 48.6511 187.663 48.5385C187.891 48.5385 188.158 48.7261 188.653 49.1012C189.147 49.4762 189.452 50.1139 189.985 50.7515C189.528 51.0141 189.071 51.2767 188.881 51.5017ZM187.282 43.5499C187.054 43.5499 186.826 43.5874 186.597 43.6249C186.788 43.1748 187.016 42.7247 187.206 42.4997C187.625 41.787 188.082 41.3369 188.729 40.6242C189.185 40.3617 189.376 39.9116 189.833 39.649C190.518 39.3865 190.974 39.1239 191.431 39.0864C192.839 38.9739 193.372 39.574 193.448 40.6618C193.486 41.2994 193.372 42.6497 193.03 44.2251C192.839 44.9002 192.649 45.5379 192.725 46.213C191.926 45.4253 191.203 44.7877 190.175 44.2251C190.175 44.2251 189.947 44.2626 189.68 44.0375C188.957 43.85 187.968 43.4749 187.282 43.5499ZM25.7524 59.7161C23.2785 58.4033 20.5762 57.3155 17.8358 56.0027L25.2957 54.0523L27.1607 53.6772C27.1988 54.3148 27.0465 55.215 27.1226 56.3028C26.9704 57.203 26.5898 58.5533 26.2472 59.8661C26.2472 59.6786 25.9808 59.7161 25.7524 59.7161ZM24.3061 41.8995C24.5345 41.6745 24.4964 41.4494 24.7248 41.2244C25.9047 38.0737 27.1226 35.7857 27.7316 34.4353C27.4652 37.0609 27.1988 39.724 26.742 42.6122C26.4756 45.2753 26.4375 47.6758 26.3234 49.2137C26.095 49.4387 25.6383 49.5138 24.9151 49.5513C24.6867 49.7763 24.23 49.8138 23.7733 49.8513C22.365 50.1889 21.6419 50.2639 21.1852 50.3014C22.365 47.3383 23.3546 44.6376 24.3061 41.8995ZM32.6034 64.8172C32.5653 64.1796 32.5273 63.7295 32.4892 63.2794C32.4511 62.8668 32.4131 62.1916 32.375 61.7415C32.337 61.1039 32.2608 60.4287 32.2228 59.7911C32.1847 59.341 32.1086 58.2532 32.1847 56.5278C32.2989 54.99 32.1467 53.4521 32.2989 52.1393C35.7624 50.9766 38.5409 50.0764 40.1394 49.2887C40.5962 49.2512 40.8245 48.9886 41.2812 48.7636C42.8798 48.201 43.7933 47.4508 43.7552 47.0382C43.7552 46.8131 43.9455 46.5881 43.9455 46.5881C43.9455 46.363 43.9455 46.363 43.9074 46.138V45.9129C43.641 45.2753 42.8798 45.1253 41.6999 45.2378C41.4716 45.2753 41.2432 45.2753 40.9768 45.3128C40.2917 45.3878 39.5685 45.6504 38.6551 45.9504C36.3714 46.7756 34.2781 47.4133 32.1847 48.0134C32.4892 46.0255 32.9079 42.0496 33.8213 36.0857C34.3542 31.0221 34.7348 27.0462 35.0393 24.3831C34.9251 23.2953 35.1154 22.4326 35.0393 21.5324C34.887 19.807 34.1258 18.9819 32.9459 19.0944C31.5377 19.2069 28.7973 23.5954 24.5345 32.4849C24.3442 33.1226 24.1539 33.6102 23.7352 34.2853C21.718 38.8238 18.8634 44.5626 15.6283 51.5767C15.1715 51.8393 14.6768 51.8768 13.7633 51.9518C12.8118 52.0268 11.1371 51.9518 9.27213 51.9143C7.10266 51.8768 4.97126 51.8393 3.06822 51.5767C2.38312 51.6517 1.69803 52.1393 1.01294 52.627C0.365903 53.3396 -0.0527661 54.0148 0.0233555 54.8775C-0.0908269 56.1903 0.213659 57.053 0.936814 57.203C1.65997 57.353 3.10628 57.4655 5.00932 57.278C6.41757 57.1655 7.86388 57.278 8.85346 57.6156C8.85346 57.6156 9.57661 57.9907 11.061 58.7408C9.34825 61.2914 7.90194 63.8045 6.1892 66.13C4.28616 68.9056 3.48689 70.7435 3.52495 71.3812C3.56301 71.8313 3.33464 72.0563 3.37271 72.4689C3.37271 72.694 3.44883 73.1066 3.44883 73.3316C3.48689 74.0068 3.75331 74.3819 4.01974 74.6069C4.28616 75.0195 5.00932 74.9445 5.96084 74.8695C7.63551 74.7194 8.77734 74.4194 9.6908 73.8943C10.6043 73.3691 11.4416 72.4314 11.8603 71.3062C12.4692 69.9184 13.0401 68.3805 13.6111 66.5801C14.3723 64.3296 14.9051 62.0791 15.7044 60.2787C19.1679 61.7415 21.3755 62.8668 22.4031 63.6169C23.2024 64.6672 24.0017 65.6799 24.3442 67.1802C24.6106 67.3678 24.6106 67.5928 24.6487 68.0054C24.6867 68.4555 24.4964 68.9056 24.5345 69.3182C24.5726 69.7683 24.6106 70.1809 24.6106 70.406C24.6867 71.2687 24.9532 71.6813 25.448 72.0938C25.9428 72.5064 26.4375 72.6565 26.9323 72.619C27.3891 72.619 27.8839 72.544 28.3406 72.5064C29.5205 72.3939 30.4339 72.0938 30.8907 71.6437C31.7661 70.706 32.375 69.3182 32.6414 66.9177C32.4511 66.13 32.6414 65.4924 32.6034 64.8172ZM134.606 56.3403C133.693 56.8654 133.008 57.353 132.056 57.428C131.6 57.4655 131.333 57.278 131.067 56.8654C130.8 56.4528 130.534 56.0402 130.496 55.5901C130.458 54.9525 131.257 53.5647 133.008 51.6517C133.426 51.1641 133.883 50.714 134.112 50.4515C135.444 49.2512 136.585 48.7261 137.309 48.8386C137.765 48.8011 138.07 49.6638 138.184 50.7515C138.26 51.8393 137.651 53.1896 136.357 54.84C135.71 55.4026 135.253 55.8527 134.606 56.3403ZM46.3053 66.6926C46.0769 66.7301 45.8485 66.7301 45.5441 66.3176C45.5441 66.0925 45.506 65.8674 45.506 65.6424C45.4679 65.4173 45.2396 65.2298 45.2015 65.0048C45.1634 64.5546 45.3918 64.3296 45.3538 64.1421C45.3538 63.917 45.3538 63.917 45.3538 63.692C45.3918 61.5165 46.4956 60.3162 48.3606 59.7161C48.5889 59.7161 49.0457 59.6785 49.0837 60.0911C49.3501 60.2787 49.3882 60.7288 49.1979 61.4039C49.3121 62.7167 48.9315 63.842 48.2844 64.7422C47.9038 65.9425 47.2187 66.4301 46.3053 66.6926ZM55.7824 31.3597C55.9727 31.1346 56.2011 30.6845 56.3914 30.1969C57.7996 26.7836 58.8273 24.9832 59.5124 24.9082C60.2355 24.8332 60.7303 25.2458 60.7684 25.8834C60.8445 26.7461 59.8169 29.0341 57.5713 33.1601C57.381 33.6102 56.9242 34.0603 56.7339 34.7354C55.0593 37.286 53.8032 39.7991 52.3189 41.6745C53.2704 38.5988 54.4503 35.1855 55.7824 31.3597ZM247.304 61.779C223.935 64.5922 200.87 67.0677 178.072 69.3557C178.338 68.0804 178.567 66.7676 178.795 65.4924C179.708 62.1541 180.66 59.0034 181.345 56.1152C182.106 56.7154 183.058 56.8279 183.819 56.9779C184.77 57.128 185.722 57.0154 186.673 56.9404C187.359 56.8654 187.853 56.8279 188.31 56.7904C189.033 56.7154 189.68 56.4528 190.403 56.3778C190.632 56.3778 190.86 56.3403 191.089 56.0777C192.04 56.0027 192.915 55.4776 193.601 54.99C194.78 54.8775 196.912 54.6899 199.462 54.0523C202.278 53.6022 204.143 53.2271 205.057 52.702L205.59 52.6645C205.742 53.0771 206.008 53.4146 206.313 53.6772C206.579 53.8647 207.036 54.0523 207.302 54.0148C208.026 54.3899 209.243 54.2773 210.423 54.2023C213.012 53.9773 215.333 53.3396 217.122 52.1018C217.579 51.8393 217.807 51.5767 218.264 51.3517C219.406 50.6015 220.7 49.1762 222.26 47.7133C222.793 48.5385 223.592 49.7763 224.43 51.2391C225.495 52.4394 227.17 52.7395 229.53 52.5519C231.433 52.3644 233.945 51.2766 237.332 49.0261L237.408 48.9886C237.713 49.8513 238.208 50.564 238.893 51.0891C239.388 51.2766 239.616 51.4642 240.111 51.4267C241.329 51.9893 243.003 52.0643 245.135 51.8768C246.543 51.7643 248.142 50.9766 250.197 49.7013C250.654 49.4387 250.882 49.1762 251.339 48.9511C252.214 48.2385 253.128 47.4508 253.775 46.5506C252.937 48.3885 252.176 50.1889 251.605 51.9893C250.159 55.2901 248.751 58.5158 247.304 61.779ZM297.887 54.6149C285.936 55.9652 286.583 56.7154 274.67 58.2907C267.629 59.2284 260.626 60.1287 253.622 60.9913C253.66 60.8038 253.737 60.5788 253.775 60.3912C254.878 56.3778 256.172 51.8768 257.467 47.4133C257.999 48.2385 259.027 49.0261 260.74 49.5513C262.224 50.0764 263.404 50.414 264.356 50.3389C265.307 50.2639 266.449 49.9263 267.362 49.4387C269.456 48.6136 271.473 47.1132 273.642 44.7502C277.601 40.6993 279.161 36.4233 278.742 31.6222C278.628 29.8968 278.019 28.3965 276.497 27.2337C275.241 26.2585 273.528 25.7334 271.625 25.8834C270.902 25.9584 269.76 26.2585 268.39 27.0462C267.515 27.7964 266.601 28.509 265.726 29.2592C265.497 29.4842 265.079 29.9718 264.85 30.1969L265.65 28.6215L277.22 6.37901C277.829 5.25376 277.981 4.12851 277.905 3.04076C277.829 2.17807 277.525 1.31537 277.03 0.940287C276.497 0.340152 275.736 -0.0349332 275.051 0.00257529C272.196 0.265135 269.798 2.85322 268.085 7.80434C266.944 11.4051 266.03 14.7434 264.888 18.1567C264.926 18.5693 264.698 19.0569 264.508 19.2819C264.165 20.6322 263.404 23.2953 262.072 26.9337C261.729 28.509 261.349 29.6343 260.93 30.5345C260.854 29.4467 260.283 28.3965 259.255 27.1962C258.19 25.9584 256.972 25.4333 255.792 25.5458C253.889 25.6959 251.834 26.5211 249.816 28.0214C247.533 29.2967 245.363 31.4722 243.194 34.0603C241.671 35.9357 240.377 37.5861 239.312 39.1989C238.017 41.3369 237.294 43.3249 237.104 45.1253C237.142 45.0878 237.18 45.0878 237.218 45.0502L237.104 45.2003C237.104 45.1628 237.104 45.1628 237.104 45.1253C236.533 45.4253 235.924 45.7629 235.353 46.1005C233.526 46.9257 232.156 47.4508 231.205 47.5633C230.253 47.6383 229.758 47.4508 229.492 46.8507C229.225 46.4381 228.921 45.5754 228.845 44.7127C228.807 44.3001 228.997 43.5874 228.921 42.7622C228.845 41.8995 228.807 41.2619 228.769 41.0368C228.388 39.0864 227.551 37.8486 226.295 36.6483C225.267 35.6356 223.592 35.3356 221.195 35.5606C219.558 35.7106 217.921 36.2733 216.094 37.0609C214.268 38.1112 212.479 39.349 210.5 41.2619C208.939 42.7247 207.911 44.3376 206.808 45.5003C206.275 46.4381 205.932 47.3383 205.704 48.201L204.867 49.0637C204.105 49.2137 203.344 49.4012 202.621 49.5888C200.794 50.1889 199.348 50.3014 198.396 50.3764C197.939 50.414 197.711 50.4515 197.445 50.4515C198.282 49.0637 198.891 47.4883 199.424 45.6879C200.185 43.2123 200.451 40.9993 200.337 39.0489C200.147 37.0984 199.538 35.4106 198.472 33.9477C197.407 32.5224 195.922 31.9973 194.286 32.1098C192.649 32.2599 191.05 33.0475 189.452 34.2853C189.262 34.5104 189.262 34.7354 189.033 34.7354C188.576 35.223 187.929 36.1607 186.826 37.3235C186.407 37.8111 186.179 38.0362 185.76 38.5238C185.722 38.2987 185.95 38.0737 185.912 37.436C185.874 36.9859 185.836 36.5733 185.798 36.1232C185.684 34.8479 185.608 33.7227 185.075 32.8975C184.542 32.2974 183.781 31.9223 182.867 31.9973C181.688 32.1098 180.774 32.5974 179.937 33.7602C179.29 34.6979 178.909 35.5981 178.947 36.4983C179.023 37.136 179.29 37.7736 179.366 38.4488C179.442 39.3115 179.48 39.9866 179.556 40.6242C179.594 41.0743 179.67 42.1621 179.556 43.6999C179.442 45.2378 179.328 46.7756 179.175 47.9009C179.137 48.0884 179.099 48.276 179.023 48.501L178.262 48.8761C178.186 48.8761 178.148 48.8761 178.072 48.8761C176.207 49.7013 174.646 50.489 172.781 51.0891C171.639 51.6142 170.498 52.1393 169.089 52.702C166.349 53.7897 164.712 54.3899 163.761 54.4649C163.266 54.5024 162.809 54.5399 161.858 54.6149C160.906 54.6899 160.412 54.5024 160.373 53.6397C160.297 52.777 160.716 52.1018 161.629 51.5767C162.543 51.0516 163.456 50.564 164.37 50.0389C165.74 49.2887 167.072 48.501 168.442 47.7509C170.954 46.213 172.21 44.5626 172.058 42.6122C171.868 40.4367 171.03 38.9739 169.774 37.7736C168.518 36.7984 166.577 36.3108 164.18 36.4983C161.591 36.7234 159.308 37.7736 157.062 39.724C155.045 41.4119 154.246 43.0248 154.322 44.1125L154.36 44.7502C154.474 45.8379 154.74 46.4756 155.007 46.8882C155.273 47.3008 155.768 47.4883 156.72 47.3758C158.128 47.2632 159.041 46.7381 159.46 45.8379C159.688 45.8004 159.879 45.1628 160.221 43.5874C160.412 42.9123 160.83 42.4247 161.287 42.1621C161.972 41.8995 162.657 41.8245 163.609 41.7495C164.56 41.6745 165.321 42.0496 165.397 43.1373C165.474 44 165.055 44.9002 164.18 45.6504C163.951 45.8754 163.038 46.4006 161.477 47.4133C159.65 48.426 157.823 49.2512 155.996 50.2639C155.121 50.789 154.436 51.5017 153.789 52.2144C152.914 53.1521 152.305 54.3148 152.381 55.4026C152.495 56.9404 153.294 57.9532 154.322 58.9659C154.322 58.9659 154.55 58.9659 154.588 59.1534C156.111 60.3162 158.508 60.8038 161.591 60.5412C164.903 60.2412 168.595 58.6283 173.086 55.6276C175.407 54.2023 177.006 52.9645 177.996 51.9893C177.996 51.9518 177.996 51.9143 178.034 51.8768L178.072 51.9143C178.034 51.9518 178.034 51.9518 177.996 51.9893C177.196 54.5024 176.131 57.353 174.913 60.5037C174.532 61.629 174.151 62.7542 173.771 63.6544C173.048 65.8674 172.286 67.9679 171.449 70.1809C123.493 74.9445 76.83 78.9954 31.5757 84.0591C16.6559 87.6599 22.2509 95.5366 30.3197 93.7362C71.5015 84.5842 120.981 79.4455 169.965 74.2693C169.051 77.045 168.595 79.0704 168.709 80.4958C168.785 81.3584 169.089 82.2211 169.356 82.8588C169.66 83.684 170.155 83.8715 171.107 83.7965C171.792 83.7215 172.705 83.2339 174.075 82.4462C174.532 81.9586 174.951 81.5085 175.179 81.2834C175.826 80.5708 176.016 79.8956 176.207 79.4455C176.549 77.4576 176.93 75.4696 177.349 73.5192C193.753 71.7563 210.081 69.9934 225.952 68.0429C232.461 67.2553 239.045 66.5051 245.668 65.8299C244.983 67.7429 244.259 69.1682 243.917 70.406C243.156 72.6565 242.813 74.1943 242.851 74.8695C242.889 75.5446 243.194 76.1448 243.689 76.5574C244.183 76.9324 245.401 77.0825 246.81 76.9324C248.446 76.7824 249.36 76.0697 249.969 74.6819C250.159 74.2318 250.349 73.3316 250.692 71.9813C251.187 69.6933 251.872 67.4053 252.557 65.0798C267.21 63.5794 281.978 62.1916 296.289 60.4287C301.275 59.641 305.385 53.7897 297.887 54.6149ZM153.713 45.7629C153.713 45.7629 153.484 45.988 153.256 46.0255C153.028 46.063 152.571 46.288 151.848 46.363C150.934 46.6631 150.249 46.9257 149.526 47.0007C149.031 47.0382 148.346 47.0757 147.585 46.7381C146.634 46.5881 145.872 46.4381 145.378 46.0255C145.263 44.2626 144.692 43.2498 143.931 42.4247C142.637 41.2244 140.468 40.9618 137.385 41.2244C136.205 41.3369 135.063 41.862 133.464 42.6497C132.132 43.6249 130.572 44.8627 129.011 46.5131C128.631 46.8507 128.326 47.1507 128.022 47.4883H127.717L127.451 47.7884C127.299 47.7884 127.184 47.7884 126.994 47.7884C126.537 48.276 126.081 48.501 125.662 48.9886C123.645 50.4515 121.666 52.1393 119.61 53.6397C116.908 55.4026 114.853 56.4528 113.178 56.6029C112.721 56.6404 112.227 56.4528 111.732 56.0777C111.427 55.4401 111.161 55.0275 111.123 54.3899C111.085 53.9773 111.465 52.8145 111.808 51.0516C112.759 47.9009 113.064 45.9129 113.026 45.5003C112.988 45.0502 112.721 44.6377 112.227 44.2626C111.732 44.1125 111.009 43.925 110.285 44C109.334 44.075 106.67 46.288 102.255 50.789C98.106 55.1025 95.4037 57.278 94.0335 57.3905C93.5387 57.428 93.3103 57.2405 93.2723 57.0154C93.0059 56.6029 92.9678 55.9652 92.9297 55.2901C92.8917 54.8775 92.8156 53.9773 93.1962 52.852C93.3484 51.7643 93.4626 50.414 93.8051 48.8761C93.729 48.0134 93.4245 47.1507 92.8917 46.5506C92.3588 45.9504 91.6357 45.7629 90.6842 45.8754C88.7811 46.0255 85.8504 47.8259 81.6257 51.4642C78.048 54.6149 75.1934 57.0154 72.9478 58.7408C73.4807 56.7529 74.0135 54.5024 74.318 52.2894C74.6986 50.9391 74.8128 49.8513 74.7367 48.7636C74.6606 48.1259 74.3941 47.4883 74.0897 46.8507C73.5568 46.213 73.062 46.063 72.6053 46.063C71.4254 46.1755 70.2836 46.9257 69.2179 48.1259C68.7992 48.8011 68.4186 49.7388 67.9999 50.639C67.8857 50.8641 67.8477 51.0891 67.8096 51.3142C67.8857 51.3517 67.9619 51.3517 67.9999 51.4267L67.6574 51.8393C67.7335 51.6517 67.7716 51.5017 67.8096 51.3142C67.7335 51.3142 67.6574 51.3142 67.5813 51.3142C66.8581 51.3892 65.9827 51.9143 64.8409 52.6645C63.5088 53.8647 62.5953 54.3899 61.9102 54.6524C60.9967 55.14 59.8549 55.7027 58.675 56.0027H58.4467C57.4951 56.3028 56.5817 56.3778 55.6302 56.4528C55.8205 55.7777 55.7824 55.3651 55.7063 54.6899C55.6302 53.6022 55.2496 52.3269 54.7167 51.2766C54.3742 50.2264 53.6129 49.6263 52.8898 49.2512C54.3361 46.5131 55.8205 44.1875 57.3048 41.862C58.3325 40.0241 59.3601 38.1862 60.4258 36.5733C62.8998 31.9973 64.7267 28.3215 65.9066 25.3958C66.1349 25.1708 66.1349 24.9457 66.1349 24.9457C67.7335 21.3074 68.2283 18.4192 68.076 16.4688C67.9619 15.381 67.6574 14.5184 67.1626 13.9182C66.6297 13.5056 65.9446 13.3556 64.9551 13.2431C64.7267 13.2806 64.27 13.3181 63.7752 13.3556C61.187 13.5806 58.7131 15.306 56.3533 18.5693C56.163 19.0194 55.7063 19.4695 55.516 19.9571C54.0697 22.6952 52.4331 26.1085 50.9106 30.4219C50.6823 30.872 49.3882 34.923 47.1426 42.5372C46.1911 45.4628 45.4299 47.7133 44.6306 49.7388C44.4403 50.1889 44.25 50.639 44.2881 51.0891C43.2985 53.6022 42.5373 55.8527 41.9663 57.8406C41.5857 58.9659 41.4335 59.8661 41.0148 60.7663C40.1014 64.5546 39.9111 67.6679 40.1014 70.2559C40.2155 71.7563 41.0148 72.5815 42.4992 73.2941C42.7276 73.2941 42.994 73.4817 43.2224 73.4817C43.9455 73.6317 44.897 73.7817 46.0769 73.6692C46.0769 73.6692 46.3053 73.6317 46.5717 73.6317C48.7031 73.4442 50.492 72.2064 51.9383 69.4683C52.5472 68.343 53.3085 65.8674 54.2219 62.3041C56.0869 61.9291 57.4951 61.5915 58.8653 61.2539C59.0937 61.2164 59.3601 61.2164 59.5885 61.1789C61.9102 60.5412 63.5088 59.9786 64.4222 59.2284C65.1454 58.8158 65.7543 58.4033 66.3252 57.9907C66.0969 59.7161 66.0208 61.2164 66.0969 62.3792C66.2111 63.8795 66.5536 64.9672 67.0865 65.5674C67.5813 65.9425 68.3044 66.0925 69.294 66.2425C69.5224 66.205 69.7888 66.205 70.0171 66.1675C71.8821 66.0175 74.3941 64.2546 78.1622 61.1039C83.0339 56.5278 85.6601 54.1273 86.1169 53.8647C86.193 54.7274 86.0407 55.6276 85.8504 56.4903C85.9266 57.353 85.7743 58.4783 85.8504 59.341C85.9646 60.8788 86.5355 61.9291 87.0684 62.7542C87.6012 63.5794 88.5908 63.917 89.9991 63.8045C93.082 63.5419 96.5075 62.1541 99.8949 59.6786C101.684 58.2157 103.701 56.7154 105.68 54.8024C105.49 55.2901 105.299 55.9277 105.376 56.7904C105.185 57.4655 105.261 58.3282 105.299 58.9659C105.414 60.0536 106.213 61.0664 107.203 61.854C108.459 62.4167 110.133 62.7167 111.998 62.5292C115.309 62.2666 118.925 60.2037 123.112 55.9277L123.302 55.8152C123.226 56.4528 123.188 57.053 123.264 57.6531C123.416 59.3785 124.254 60.8413 125.967 61.779C126.195 61.9666 126.461 62.1916 126.728 62.1541C127.984 62.9418 129.164 63.0543 130.343 62.9418C131.752 62.8293 133.35 62.2291 134.949 61.2539C135.862 60.5037 136.966 59.7536 137.841 58.8159C139.745 56.0402 141.648 53.0395 143.589 50.2264C144.578 50.6015 145.301 50.9766 146.291 51.3142C147.242 51.4642 148.194 51.3892 149.107 51.2766C150.554 51.1266 151.924 50.8265 153.028 49.8513C153.256 49.8138 153.256 49.8138 153.484 49.5888C154.398 48.8761 154.817 48.1634 154.702 47.3008C154.702 46.3255 154.436 45.6879 153.713 45.7629Z" fill="#E30613"/>
</svg>
