<svg width="18" height="13" viewBox="0 0 18 13" fill="none" xmlns="http://www.w3.org/2000/svg">
<path d="M9.71277 0.980417C9.07387 1.54585 8.11347 1.54578 7.47457 0.980342C6.84055 0.419225 5.88894 0.414234 5.24916 0.968771L0.739639 4.87741C0.344091 5.22026 0.364979 5.8708 0.888429 5.8708C0.888429 5.8708 0.888429 5.8708 0.888429 5.8708H16.299C16.8211 5.8708 16.8412 5.22157 16.4468 4.87948L11.9381 0.969253C11.2985 0.414482 10.3468 0.419256 9.71277 0.980417Z" transform="translate(0.40625 7.12939)" fill="white"/>
<path d="M16.445 0.993528C16.841 0.650277 16.8205 0 16.2964 0H0.885857C0.885857 0 0.885857 0 0.885857 0C0.361943 0 0.342989 0.652135 0.738918 0.995248L5.31655 4.96223C7.19585 6.59084 9.9864 6.5908 11.8657 4.96215L16.445 0.993528Z" transform="translate(0.408813)" fill="white"/>
<path d="M4.08634 3.59144C2.49598 2.19369 0 3.32298 0 5.44028C0 7.54458 2.46946 8.67858 4.06552 7.3072C5.20017 6.33229 5.20999 4.57901 4.08634 3.59144Z" transform="translate(0 1.1416)" fill="white"/>
<path d="M2.12636 3.59503C1.00318 4.58288 1.01331 6.33586 2.14783 7.31067C3.74409 8.68222 6.21386 7.54808 6.21386 5.44352C6.21386 3.32554 3.71673 2.19627 2.12636 3.59503Z" transform="translate(11.7861 1.13721)" fill="white"/>
</svg>
