<svg width="59" height="76" viewBox="0 0 59 76" fill="none" xmlns="http://www.w3.org/2000/svg">
<path d="M40.6899 0H0V76H59V18.4756L40.6899 0ZM41.4255 4.3244L54.7143 17.7333H41.4255V4.3244ZM2.51064 73.4667V2.53333H38.9149V20.2667H56.4894V73.4667H2.51064Z" fill="#E30613"/>
<path d="M1.25532 2.53333H12.5532C13.2474 2.53333 13.8085 1.96713 13.8085 1.26667C13.8085 0.5662 13.2474 0 12.5532 0H1.25532C0.561128 0 0 0.5662 0 1.26667C0 1.96713 0.561128 2.53333 1.25532 2.53333Z" transform="translate(11.2979 19)" fill="#E30613"/>
<path d="M1.25532 2.53333H7.53192C8.22611 2.53333 8.78723 1.96713 8.78723 1.26667C8.78723 0.5662 8.22611 0 7.53192 0H1.25532C0.561128 0 0 0.5662 0 1.26667C0 1.96713 0.561128 2.53333 1.25532 2.53333Z" transform="translate(11.2979 29.1332)" fill="#E30613"/>
<path d="M1.25532 2.53333H10.0426C10.7367 2.53333 11.2979 1.96713 11.2979 1.26667C11.2979 0.5662 10.7367 0 10.0426 0H1.25532C0.561128 0 0 0.5662 0 1.26667C0 1.96713 0.561128 2.53333 1.25532 2.53333Z" transform="translate(30.1277 29.1332)" fill="#E30613"/>
<path d="M0.364044 0.362598C0.125533 0.590598 0 0.918666 0 1.24927C0 1.5786 0.125533 1.90793 0.364044 2.1486C0.601299 2.3766 0.928936 2.51593 1.25532 2.51593C1.5817 2.51593 1.90808 2.388 2.14659 2.13593C2.37255 1.90667 2.51064 1.5786 2.51064 1.24927C2.51064 0.918666 2.37255 0.589334 2.14659 0.349934C1.66957 -0.118733 0.828512 -0.118735 0.364044 0.362598Z" transform="translate(23.8511 29.1508)" fill="#E30613"/>
<path d="M1.25532 2.5175C1.5817 2.5175 1.90808 2.37817 2.14659 2.15017C2.37255 1.9095 2.51064 1.58017 2.51064 1.25083C2.51064 0.920233 2.37255 0.590901 2.14659 0.351501C1.66957 -0.117165 0.841065 -0.117165 0.364044 0.351501C0.136831 0.590901 0 0.920233 0 1.25083C0 1.58017 0.136831 1.9095 0.364044 2.15017C0.601299 2.37817 0.928936 2.5175 1.25532 2.5175Z" transform="translate(45.1915 29.1492)" fill="#E30613"/>
<path d="M10.0426 0H1.25532C0.561128 0 0 0.5662 0 1.26667C0 1.96713 0.561128 2.53333 1.25532 2.53333H10.0426C10.7367 2.53333 11.2979 1.96713 11.2979 1.26667C11.2979 0.5662 10.7367 0 10.0426 0Z" transform="translate(17.5745 39.2667)" fill="#E30613"/>
<path d="M1.25532 2.5175C1.5817 2.5175 1.90808 2.37817 2.14659 2.15017C2.38385 1.9095 2.51064 1.58017 2.51064 1.25083C2.51064 0.920233 2.38385 0.590901 2.14659 0.351501C1.66957 -0.117165 0.841064 -0.117165 0.364042 0.351501C0.125532 0.590901 0 0.907567 0 1.25083C0 1.58017 0.13683 1.9095 0.364042 2.15017C0.601298 2.37817 0.928936 2.5175 1.25532 2.5175Z" transform="translate(11.2979 39.2825)" fill="#E30613"/>
<path d="M7.76584 0.155214C5.01669 1.59921 4.09152 4.36181 3.75384 7.22575C3.23414 6.78621 2.71444 6.34795 2.19473 5.90841C0.96452 4.86848 -0.820543 6.65068 0.419712 7.70075C1.59344 8.69255 2.76842 9.68561 3.94214 10.6787C4.76814 11.3766 6.04731 10.9358 6.08497 9.78314C6.17661 7.03955 6.30465 3.77661 9.03246 2.34401C10.466 1.59035 9.19816 -0.597186 7.76584 0.155214Z" transform="translate(8.73532 50.7216)" fill="#E30613"/>
<path d="M7.25092 0.510675C5.51231 0.917275 3.53392 3.14914 2.30999 0.644945C1.59571 -0.816788 -0.570968 0.465077 0.142053 1.92301C0.791053 3.25174 2.02503 4.18274 3.4925 4.37021C4.23816 4.46521 4.91227 4.35881 5.61148 4.08394C6.1249 3.88254 8.04303 2.42714 8.45729 3.17574C9.24563 4.59947 11.4148 3.32268 10.6252 1.89768C9.95112 0.679143 8.58658 0.197808 7.25092 0.510675Z" transform="translate(17.5981 55.4192)" fill="#E30613"/>
<path d="M20.3927 8.2498C20.1002 8.14467 19.9709 7.92173 19.9194 7.7976C19.8692 7.67346 19.8027 7.42267 19.937 7.13894C20.5458 5.8444 20.291 4.35353 19.2867 3.33893C18.2812 2.32687 16.8024 2.06847 15.522 2.6828C15.2383 2.81833 14.9898 2.7512 14.868 2.70053C14.7437 2.6486 14.524 2.51813 14.4199 2.223C13.9441 0.871466 12.7189 0 11.2979 0C9.87685 0 8.65166 0.871466 8.17589 2.223C8.0717 2.51813 7.85076 2.6486 7.72774 2.70053C7.60598 2.7512 7.35617 2.8196 7.07498 2.6828C5.7933 2.071 4.31579 2.3256 3.30902 3.33893C2.30477 4.35353 2.04994 5.8444 2.65877 7.13766C2.79183 7.42266 2.72655 7.67346 2.67634 7.7976C2.62487 7.923 2.49558 8.14467 2.20309 8.2498C0.863661 8.72987 0 9.96613 0 11.4C0 12.8339 0.863661 14.0701 2.20309 14.5502C2.49558 14.6553 2.62487 14.8783 2.67634 15.0024C2.72655 15.1265 2.79309 15.3773 2.65877 15.6611C2.04994 16.9556 2.30477 18.4465 3.30902 19.4611C3.79483 19.95 4.39111 20.2591 5.02128 20.3832V35.9911L11.2979 29.6577L17.5745 35.9911V20.3819C18.2046 20.2591 18.8022 19.9513 19.2867 19.4611C20.291 18.4465 20.5458 16.9556 19.937 15.6623C19.8039 15.3773 19.8692 15.1265 19.9194 15.0024C19.9709 14.877 20.1002 14.6553 20.3927 14.5502C21.7321 14.0701 22.5957 12.8339 22.5957 11.4C22.5957 9.96613 21.7321 8.72987 20.3927 8.2498ZM11.2979 26.0756L7.53192 29.8756V20.0488C7.54321 20.0501 7.55451 20.0513 7.56455 20.0539C7.62732 20.0665 7.68757 20.0817 7.72774 20.0995C7.78925 20.1261 7.87587 20.1717 7.95872 20.2464C8.04283 20.3224 8.12443 20.4288 8.17589 20.577C8.65166 21.9285 9.87685 22.8 11.2979 22.8C12.7189 22.8 13.9441 21.9285 14.4199 20.577C14.4713 20.4288 14.5529 20.3224 14.637 20.2464C14.7211 20.1704 14.8065 20.1248 14.868 20.0995C14.9082 20.083 14.9672 20.0665 15.0299 20.0539C15.04 20.0526 15.0513 20.0501 15.0626 20.0488V29.8743L11.2979 26.0756ZM19.5516 12.1638C18.6704 12.4792 17.9586 13.1607 17.6008 14.0334C17.2418 14.9061 17.2657 15.8967 17.6686 16.7517C17.8883 17.2165 17.6322 17.5497 17.5104 17.6713C17.4113 17.7739 17.1577 17.955 16.8062 17.8866L16.53 17.7992C16.4158 17.7473 16.2953 17.7194 16.1773 17.6827C16.0894 17.6548 16.0041 17.6168 15.9149 17.5953C15.7919 17.5674 15.6651 17.5598 15.5396 17.5459C15.4379 17.5345 15.3387 17.5129 15.2371 17.5104C15.1153 17.5079 14.9948 17.5281 14.8743 17.5383C14.7701 17.5484 14.6646 17.5459 14.5604 17.5661C14.3383 17.6079 14.1198 17.6725 13.9077 17.7612C13.9077 17.7612 13.9064 17.7612 13.9052 17.7625C13.8499 17.7853 13.8035 17.822 13.7495 17.8473C13.5939 17.9233 13.4369 17.9981 13.2951 18.0969C13.1256 18.2147 12.9712 18.354 12.8268 18.5009C12.8105 18.5174 12.7892 18.5301 12.7729 18.5478C12.4565 18.8835 12.2092 19.2863 12.0523 19.7309C11.8841 20.2147 11.4686 20.2667 11.2979 20.2667C11.1271 20.2667 10.7116 20.2147 10.5409 19.7283C10.384 19.2825 10.1367 18.8809 9.82036 18.5453C9.80781 18.5313 9.79149 18.5225 9.77768 18.5085C9.62955 18.3565 9.47138 18.2159 9.29689 18.0943C9.16132 17.9993 9.00942 17.9284 8.86004 17.8549C8.80104 17.8258 8.74832 17.7853 8.68681 17.7599C8.68555 17.7599 8.68555 17.7587 8.68555 17.7587C8.65919 17.7473 8.63157 17.7447 8.60521 17.7346C8.42194 17.6637 8.23615 17.6041 8.0466 17.5674C7.89345 17.537 7.74155 17.5307 7.5884 17.5218C7.53191 17.5193 7.47543 17.5053 7.41894 17.5053C7.41517 17.5053 7.41266 17.5066 7.40889 17.5066C6.9394 17.5053 6.48372 17.5978 6.09457 17.7891L5.80962 17.879C5.44934 17.9613 5.18698 17.7739 5.08404 17.6687C4.96228 17.5471 4.70619 17.2153 4.92587 16.7479C5.32757 15.8941 5.35268 14.9049 4.99366 14.0309C4.63589 13.1594 3.92413 12.4767 3.04289 12.1613C2.56211 11.9915 2.51064 11.5723 2.51064 11.4C2.51064 11.2277 2.56211 10.8085 3.04415 10.6362C3.92538 10.3208 4.63715 9.63933 4.99492 8.7666C5.35394 7.89387 5.33008 6.90334 4.92713 6.04834C4.70745 5.58347 4.96353 5.25033 5.0853 5.12873C5.20581 5.00587 5.53345 4.75 5.99791 4.96913C6.84274 5.37447 7.8244 5.40233 8.69057 5.03753C9.55423 4.67653 10.2308 3.95833 10.5434 3.06913C10.7116 2.58527 11.1271 2.53333 11.2979 2.53333C11.4686 2.53333 11.8841 2.58527 12.0548 3.07167C12.3687 3.96087 13.0428 4.67907 13.9077 5.04007C14.7713 5.40487 15.7543 5.37827 16.6016 4.97167C17.061 4.74747 17.3937 5.0084 17.513 5.13127C17.6347 5.25286 17.8908 5.58473 17.6711 6.05213C17.2694 6.90587 17.2443 7.89513 17.6033 8.76913C17.9611 9.6406 18.6729 10.3233 19.5541 10.6387C20.0336 10.8085 20.0851 11.2277 20.0851 11.4C20.0851 11.5723 20.0336 11.9915 19.5516 12.1638Z" transform="translate(30.1277 35.4667)" fill="#E30613"/>
</svg>
