<svg width="19" height="18" viewBox="0 0 19 18" fill="none" xmlns="http://www.w3.org/2000/svg">
<path d="M0 16.5462C0 16.9657 0.340076 17.3058 0.759581 17.3058C1.17909 17.3058 1.51916 16.9657 1.51916 16.5462V5.97004C1.51916 5.55054 1.17909 5.21046 0.759581 5.21046C0.340076 5.21046 0 5.55054 0 5.97004V16.5462ZM18.0476 5.21046C17.5216 5.21046 17.0952 4.78406 17.0952 4.25807V2.60523C17.0952 1.1664 15.9288 -2.58388e-09 14.49 -2.58388e-09H12.1088C10.67 -2.58388e-09 9.50359 1.1664 9.50359 2.60523V3.72513C9.50359 4.54546 8.83859 5.21046 8.01826 5.21046C7.19794 5.21046 6.53293 5.87547 6.53293 6.69579V12.3064C6.53293 15.0678 8.77151 17.3064 11.5329 17.3064H14C16.7614 17.3064 19 15.0678 19 12.3064V6.16286C19 5.63687 18.5736 5.21046 18.0476 5.21046ZM11.7503 14.0521C11.7503 14.4567 11.4223 14.7885 11.0177 14.7885C10.613 14.7885 10.285 14.4567 10.285 14.0521C10.285 13.6475 10.613 13.3158 11.0177 13.3158C11.4223 13.3158 11.7503 13.6475 11.7503 14.0521ZM11.7503 11.6173C11.7503 12.0219 11.4223 12.353 11.0177 12.353C10.613 12.353 10.285 12.0219 10.285 11.6173C10.285 11.2127 10.613 10.8815 11.0177 10.8815C11.4223 10.8815 11.7503 11.2127 11.7503 11.6173ZM11.7503 9.29563C11.7503 9.70025 11.4223 10.032 11.0177 10.032C10.613 10.032 10.285 9.70025 10.285 9.29563C10.285 8.891 10.613 8.55927 11.0177 8.55927C11.4223 8.55927 11.7503 8.891 11.7503 9.29563ZM14.4545 14.0521C14.4545 14.4567 14.1265 14.7885 13.7219 14.7885C13.3172 14.7885 12.9892 14.4567 12.9892 14.0521C12.9892 13.6475 13.3172 13.3158 13.7219 13.3158C14.1265 13.3158 14.4545 13.6475 14.4545 14.0521ZM14.4545 11.6173C14.4545 12.0219 14.1265 12.353 13.7219 12.353C13.3172 12.353 12.9892 12.0219 12.9892 11.6173C12.9892 11.2127 13.3172 10.8815 13.7219 10.8815C14.1265 10.8815 14.4545 11.2127 14.4545 11.6173ZM14.4545 9.29563C14.4545 9.70025 14.1265 10.032 13.7219 10.032C13.3172 10.032 12.9892 9.70025 12.9892 9.29563C12.9892 8.891 13.3172 8.55927 13.7219 8.55927C14.1265 8.55927 14.4545 8.891 14.4545 9.29563ZM17.1569 14.0521C17.1569 14.4564 16.8291 14.7885 16.4249 14.7885C16.0206 14.7885 15.6928 14.4564 15.6928 14.0521C15.6928 13.6478 16.0206 13.3158 16.4249 13.3158C16.8291 13.3158 17.1569 13.6478 17.1569 14.0521ZM17.1569 11.6173C17.1569 12.0216 16.8291 12.353 16.4249 12.353C16.0206 12.353 15.6928 12.0216 15.6928 11.6173C15.6928 11.213 16.0206 10.8815 16.4249 10.8815C16.8291 10.8815 17.1569 11.213 17.1569 11.6173ZM17.1569 9.29563C17.1569 9.69992 16.8291 10.032 16.4249 10.032C16.0206 10.032 15.6928 9.69992 15.6928 9.29563C15.6928 8.89133 16.0206 8.55927 16.4249 8.55927C16.8291 8.55927 17.1569 8.89133 17.1569 9.29563ZM18.0587 6.62627C18.0587 6.98623 17.7669 7.27803 17.4069 7.27803H9.19068C8.83072 7.27803 8.53892 6.98623 8.53892 6.62627V6.45685C8.53892 6.19046 8.75487 5.97451 9.02126 5.97451H9.17786C9.35776 5.97451 9.50359 6.12035 9.50359 6.30024C9.50359 6.48014 9.64943 6.62597 9.82932 6.62597H16.7695C16.9494 6.62597 17.0952 6.48014 17.0952 6.30024C17.0952 6.12035 17.241 5.97451 17.4209 5.97451H17.5769C17.843 5.97451 18.0587 6.19019 18.0587 6.45625V6.62627ZM2.11677 16.0844C2.11677 17.1424 2.9744 18 4.03234 18C5.09027 18 5.9479 17.1424 5.9479 16.0844V5.77796C5.9479 4.72002 5.09027 3.86239 4.03234 3.86239C2.9744 3.86239 2.11677 4.72002 2.11677 5.77796V16.0844ZM16.0868 1.19605C16.0868 1.33687 15.9727 1.45103 15.8318 1.45103H10.9352C10.7944 1.45103 10.6802 1.33687 10.6802 1.19605C10.6802 1.05522 10.7944 0.941062 10.9352 0.941062H15.8318C15.9727 0.941062 16.0868 1.05522 16.0868 1.19605ZM16.0868 2.55526C16.0868 2.69558 15.9731 2.80934 15.8327 2.80934H10.9343C10.794 2.80934 10.6802 2.69558 10.6802 2.55526C10.6802 2.41493 10.794 2.30118 10.9343 2.30118H15.8327C15.9731 2.30118 16.0868 2.41493 16.0868 2.55526Z" fill="white"/>
</svg>
